<svg width="19" height="19" viewBox="0 0 19 19" fill="none" xmlns="http://www.w3.org/2000/svg">
<path fill-rule="evenodd" clip-rule="evenodd" d="M11.0483 12.7113C9.9054 13.5229 8.50842 14 7 14C3.13401 14 0 10.866 0 7C0 3.13401 3.13401 0 7 0C10.866 0 14 3.13401 14 7C14 8.27081 13.6614 9.46253 13.0694 10.4898L18.2967 15.7171C18.8825 16.3029 18.8825 17.2527 18.2967 17.8385C17.7109 18.4242 16.7612 18.4242 16.1754 17.8385L11.0483 12.7113ZM11 7C11 9.20914 9.20914 11 7 11C4.79086 11 3 9.20914 3 7C3 4.79086 4.79086 3 7 3C9.20914 3 11 4.79086 11 7Z" fill="#020204"/>
</svg>
