<svg width="36" height="36" viewBox="0 0 36 36" fill="none" xmlns="http://www.w3.org/2000/svg">
<path fill-rule="evenodd" clip-rule="evenodd" d="M19.0483 20.7113C17.9054 21.5229 16.5084 22 15 22C11.134 22 8 18.866 8 15C8 11.134 11.134 8 15 8C18.866 8 22 11.134 22 15C22 16.2708 21.6614 17.4625 21.0694 18.4898L26.2967 23.7171C26.8825 24.3029 26.8825 25.2527 26.2967 25.8385C25.7109 26.4242 24.7612 26.4242 24.1754 25.8385L19.0483 20.7113ZM19 15C19 17.2091 17.2091 19 15 19C12.7909 19 11 17.2091 11 15C11 12.7909 12.7909 11 15 11C17.2091 11 19 12.7909 19 15Z" fill="white"/>
</svg>
