<svg width="50" height="44" viewBox="0 0 50 44" fill="none" xmlns="http://www.w3.org/2000/svg">
<path fill-rule="evenodd" clip-rule="evenodd" d="M0 9.98772C5.29056 9.7272 9.5 5.35518 9.5 0C9.5 5.52285 13.9772 10 19.5 10C13.9772 10 9.5 14.4772 9.5 20C9.5 14.6448 5.29056 10.2728 0 10.0123L0 9.98772Z" fill="white"/>
<path d="M10.5622 30.7705C11.5023 34.279 13.5738 37.3792 16.4554 39.5903C19.3371 41.8015 22.8678 43 26.5 43C30.1322 43 33.6629 41.8015 36.5446 39.5903C39.4262 37.3792 41.4977 34.279 42.4378 30.7705" stroke="white" stroke-width="2" stroke-linecap="round" stroke-linejoin="round"/>
<path d="M35.2385 9.81173C35.6373 11.3002 36.5162 12.6154 37.7387 13.5535C38.9612 14.4915 40.4591 15 42 15C43.5409 15 45.0388 14.4915 46.2613 13.5535C47.4838 12.6154 48.3627 11.3002 48.7615 9.81173" stroke="white" stroke-width="2" stroke-linecap="round" stroke-linejoin="round"/>
</svg>
