<svg width="91" height="90" viewBox="0 0 91 90" fill="none" xmlns="http://www.w3.org/2000/svg">
<path d="M90.0294 52.5353C90.0294 64.133 82.8565 73.3616 72.5654 79.716C62.2738 86.0706 48.9328 89.5 36.7941 89.5C24.7131 89.5 15.6619 84.893 9.62012 77.3933C3.56717 69.8797 0.5 59.4175 0.5 47.6664C0.5 35.9695 5.40024 24.1689 13.3359 15.2927C21.27 6.41803 32.2065 0.5 44.2588 0.5C56.2823 0.5 67.7219 7.60719 76.1769 17.7147C84.6302 27.8201 90.0294 40.844 90.0294 52.5353Z" stroke="white"/>
<ellipse cx="39.0586" cy="29.0588" rx="1.05882" ry="1.05882" fill="white"/>
<ellipse cx="52.059" cy="27.0588" rx="1.05882" ry="1.05882" fill="white"/>
<ellipse cx="22.2353" cy="46.0588" rx="1.05882" ry="1.05882" fill="white"/>
<ellipse cx="55.059" cy="60.0588" rx="1.05882" ry="1.05882" fill="white"/>
<ellipse cx="25.4117" cy="47.6471" rx="0.529412" ry="0.529413" fill="white"/>
<ellipse cx="31.7647" cy="64.0588" rx="1.05882" ry="1.05882" fill="white"/>
<ellipse cx="68.8235" cy="47.1177" rx="0.529415" ry="0.529411" fill="white"/>
<ellipse cx="49.7647" cy="23.2942" rx="1.05882" ry="1.05882" fill="white"/>
<ellipse cx="26.5296" cy="29.5294" rx="0.529412" ry="0.529411" fill="white"/>
<path fill-rule="evenodd" clip-rule="evenodd" d="M29.9998 49.4027C33.921 49.2095 37.0409 45.9691 37.0409 42C37.0409 46.0934 40.3592 49.4118 44.4526 49.4118C40.3592 49.4118 37.0409 52.7301 37.0409 56.8235C37.0409 52.8544 33.921 49.614 29.9998 49.4209V49.4027Z" fill="white"/>
<path fill-rule="evenodd" clip-rule="evenodd" d="M44.0002 41.2876C46.8011 41.1497 49.0296 38.8351 49.0296 36C49.0296 38.9239 51.3998 41.2941 54.3237 41.2941C51.3998 41.2941 49.0296 43.6644 49.0296 46.5882C49.0296 43.7531 46.8011 41.4385 44.0002 41.3006V41.2876Z" fill="white"/>
</svg>
